<svg xmlns="http://www.w3.org/2000/svg" width="16" height="11" viewBox="0 0 16 11" fill="none">
  <path fill-rule="evenodd" clip-rule="evenodd" d="M3.28434 6.81906L3.43289 7.18931L4.20095 9.10367L6.22191 8.38482L6.61091 8.24645L7.01593 8.32664C7.24079 8.37116 7.46974 8.40963 7.70226 8.44163C9.68007 8.71379 11.441 8.45374 12.6768 7.89979C13.9339 7.33631 14.4277 6.59616 14.4918 5.97092C14.5584 5.32031 14.2029 4.42062 13.0621 3.50553C11.9492 2.61291 10.2737 1.88058 8.29774 1.60867C6.31993 1.33652 4.55901 1.59656 3.32316 2.15051C2.06608 2.71399 1.5723 3.45414 1.50825 4.07939C1.44092 4.73656 1.80509 5.64864 2.97149 6.57152L3.28434 6.81906ZM3.34555 11L2.04076 7.74784C0.661125 6.65625 -0.124035 5.29404 0.0160545 3.92653C0.293421 1.21896 4.0928 -0.484079 8.50222 0.122676C12.9116 0.72943 16.2613 3.41621 15.9839 6.12378C15.7066 8.83134 11.9072 10.5344 7.49778 9.92763C7.23615 9.89162 6.97824 9.8483 6.7246 9.79808L3.34555 11Z" fill="#00F0FF"/>
</svg>