<svg width="384" height="359" viewBox="0 0 384 359" fill="none" xmlns="http://www.w3.org/2000/svg">
<g clip-path="url(#clip0_1064_4940)">
<path d="M55.2728 100.364L56.892 103.626L60.5002 104.154L57.8915 106.698L58.5112 110.289L55.2728 108.594L52.0444 110.289L52.6641 106.698L50.0454 104.154L53.6636 103.626L55.2728 100.364Z" fill="#EBEBEB"/>
<path d="M378.763 254.217L380.382 257.489L384 258.008L381.381 260.561L382.001 264.152L378.763 262.457L375.534 264.152L376.154 260.561L373.535 258.008L377.153 257.489L378.763 254.217Z" fill="#F5F5F5"/>
<path d="M314.694 349.074L316.303 352.336L319.922 352.865L317.303 355.409L317.923 359L314.694 357.304L311.456 359L312.076 355.409L309.467 352.865L313.075 352.336L314.694 349.074Z" fill="#F5F5F5"/>
<path d="M168.107 42.4058L168.707 43.6228L170.056 43.8224C170.131 43.8322 170.202 43.8632 170.26 43.9118C170.319 43.9604 170.362 44.0246 170.385 44.0968C170.408 44.169 170.41 44.2463 170.391 44.3196C170.371 44.3929 170.332 44.4592 170.276 44.5107L169.276 45.4583L169.506 46.7951C169.518 46.8695 169.509 46.9457 169.48 47.0153C169.451 47.0849 169.404 47.1452 169.343 47.1896C169.282 47.2339 169.21 47.2606 169.135 47.2667C169.059 47.2728 168.984 47.258 168.917 47.224L167.717 46.5856L166.518 47.224C166.45 47.258 166.375 47.2728 166.3 47.2667C166.224 47.2606 166.152 47.2339 166.091 47.1896C166.03 47.1452 165.983 47.0849 165.954 47.0153C165.925 46.9457 165.916 46.8695 165.928 46.7951L166.148 45.4583L165.148 44.5107C165.092 44.4585 165.053 44.3914 165.034 44.3173C165.015 44.2433 165.018 44.1654 165.042 44.0929C165.066 44.0204 165.111 43.9564 165.17 43.9084C165.23 43.8604 165.302 43.8306 165.378 43.8224L166.718 43.6228L167.317 42.4058C167.341 42.3197 167.393 42.2438 167.464 42.1898C167.536 42.1357 167.623 42.1064 167.712 42.1064C167.802 42.1064 167.889 42.1357 167.96 42.1898C168.031 42.2438 168.083 42.3197 168.107 42.4058Z" fill="#EBEBEB"/>
<path d="M3.02846 333.542L3.62816 334.749L4.9675 334.949C5.04354 334.959 5.1151 334.991 5.17405 335.04C5.233 335.089 5.27695 335.153 5.30091 335.226C5.32487 335.299 5.32787 335.377 5.30956 335.451C5.29126 335.526 5.25239 335.593 5.19739 335.647L4.19788 336.585L4.42777 337.921C4.43957 337.996 4.43056 338.072 4.40173 338.142C4.3729 338.211 4.32537 338.271 4.26438 338.316C4.20339 338.36 4.13131 338.387 4.05608 338.393C3.98085 338.399 3.90541 338.384 3.83806 338.35L2.63865 337.722L1.43925 338.35C1.3719 338.384 1.29645 338.399 1.22123 338.393C1.146 338.387 1.07392 338.36 1.01293 338.316C0.951935 338.271 0.904401 338.211 0.875571 338.142C0.84674 338.072 0.837731 337.996 0.849537 337.921L1.07943 336.585L0.0799208 335.647C0.0250954 335.594 -0.0139133 335.527 -0.032721 335.454C-0.0515287 335.38 -0.0493924 335.302 -0.0265557 335.23C-0.00371901 335.157 0.0389146 335.093 0.0965637 335.043C0.154213 334.993 0.224595 334.961 0.299809 334.949L1.63915 334.749L2.24885 333.542C2.27556 333.46 2.32766 333.388 2.39769 333.337C2.46772 333.287 2.55207 333.259 2.63865 333.259C2.72523 333.259 2.80958 333.287 2.87961 333.337C2.94964 333.388 3.00175 333.46 3.02846 333.542Z" fill="#F5F5F5"/>
<path d="M29.9854 29.5874L30.5851 30.8044L31.9344 30.9939C32.0096 31.0059 32.08 31.0386 32.1376 31.0883C32.1953 31.138 32.2379 31.2027 32.2608 31.2752C32.2836 31.3477 32.2857 31.4252 32.2669 31.4988C32.2481 31.5725 32.2091 31.6395 32.1543 31.6922L31.1548 32.6898L31.3847 34.0165C31.4006 34.0919 31.3945 34.1702 31.3668 34.242C31.3392 34.3139 31.2913 34.3763 31.229 34.4216C31.1667 34.467 31.0925 34.4933 31.0155 34.4976C30.9385 34.5018 30.8619 34.4837 30.795 34.4455L29.5956 33.817L28.3962 34.4455C28.3292 34.4837 28.2526 34.5018 28.1756 34.4976C28.0986 34.4933 28.0244 34.467 27.9621 34.4216C27.8998 34.3763 27.8519 34.3139 27.8243 34.242C27.7967 34.1702 27.7905 34.0919 27.8064 34.0165L28.0263 32.6898L27.0268 31.6922C26.9718 31.6388 26.933 31.571 26.9147 31.4967C26.8964 31.4223 26.8993 31.3442 26.9233 31.2715C26.9473 31.1987 26.9912 31.1341 27.0502 31.085C27.1091 31.036 27.1807 31.0044 27.2567 30.9939L28.5961 30.8044L29.2357 29.5874C29.2678 29.5149 29.3204 29.4533 29.3869 29.41C29.4534 29.3668 29.5311 29.3438 29.6106 29.3438C29.69 29.3438 29.7677 29.3668 29.8342 29.41C29.9007 29.4533 29.9533 29.5149 29.9854 29.5874Z" fill="#EBEBEB"/>
<path d="M28.3662 270.018C28.3681 270.281 28.2919 270.538 28.147 270.758C28.0021 270.977 27.7952 271.149 27.5525 271.251C27.3098 271.353 27.0422 271.38 26.7837 271.33C26.5251 271.28 26.2873 271.155 26.1004 270.97C25.9135 270.784 25.7859 270.548 25.7338 270.29C25.6817 270.033 25.7074 269.766 25.8077 269.523C25.9081 269.28 26.0784 269.072 26.2973 268.925C26.5161 268.779 26.7735 268.701 27.0368 268.701C27.3877 268.701 27.7243 268.84 27.9733 269.086C28.2223 269.333 28.3635 269.668 28.3662 270.018Z" fill="#EBEBEB"/>
<path d="M217.812 103.995C217.814 104.258 217.738 104.515 217.593 104.735C217.448 104.954 217.241 105.126 216.998 105.228C216.756 105.33 216.488 105.358 216.229 105.307C215.971 105.257 215.733 105.132 215.546 104.947C215.359 104.762 215.232 104.525 215.18 104.268C215.127 104.01 215.153 103.743 215.254 103.5C215.354 103.257 215.524 103.049 215.743 102.903C215.962 102.756 216.219 102.678 216.483 102.678C216.657 102.677 216.829 102.71 216.991 102.776C217.152 102.841 217.298 102.938 217.422 103.06C217.546 103.183 217.644 103.328 217.711 103.489C217.778 103.649 217.812 103.821 217.812 103.995Z" fill="#EBEBEB"/>
<path d="M148.886 30.6847C148.886 30.9471 148.808 31.2036 148.662 31.4218C148.516 31.6399 148.308 31.81 148.066 31.9104C147.823 32.0108 147.555 32.0371 147.298 31.9859C147.04 31.9347 146.803 31.8084 146.617 31.6228C146.431 31.4373 146.304 31.2009 146.253 30.9435C146.202 30.6861 146.228 30.4194 146.329 30.1769C146.429 29.9345 146.6 29.7273 146.818 29.5815C147.037 29.4357 147.294 29.3579 147.557 29.3579C147.909 29.3605 148.245 29.5011 148.494 29.7494C148.743 29.9976 148.884 30.3336 148.886 30.6847Z" fill="#F5F5F5"/>
<path d="M150.991 354.036C154.94 353.106 157.386 349.157 156.454 345.216C155.522 341.275 151.565 338.834 147.616 339.764C143.667 340.694 141.222 344.643 142.154 348.584C143.086 352.525 147.043 354.966 150.991 354.036Z" fill="#F0F0F0"/>
<path d="M146.777 342.61C145.272 342.607 143.805 343.082 142.589 343.967C141.968 345.389 141.816 346.971 142.154 348.485C142.492 350 143.303 351.368 144.471 352.392C145.638 353.416 147.102 354.044 148.65 354.184C150.198 354.325 151.75 353.971 153.084 353.174C153.674 352.084 153.971 350.86 153.945 349.622C153.919 348.383 153.571 347.173 152.935 346.109C152.299 345.045 151.397 344.164 150.318 343.552C149.238 342.941 148.018 342.619 146.777 342.62V342.61Z" fill="#E6E6E6"/>
<path d="M89.8853 219.462H29.0654V192.059L89.8853 119.896H118.991V193.615H134.073V219.462H118.991V241.887H89.8853V219.462ZM89.8853 193.615V155.868L57.7412 193.615H89.8853Z" fill="#4DCBF2"/>
<path d="M144.478 181.425C144.478 158.621 148.59 142.66 156.812 133.542C165.035 124.425 177.565 119.869 194.404 119.876C202.486 119.876 209.126 120.874 214.324 122.869C219.045 124.567 223.369 127.211 227.027 130.64C230.111 133.578 232.724 136.973 234.774 140.705C236.802 144.601 238.33 148.737 239.321 153.015C241.581 162.153 242.709 171.534 242.68 180.946C242.68 202.706 238.992 218.631 231.615 228.719C224.239 238.808 211.535 243.855 193.504 243.862C183.389 243.862 175.216 242.253 168.986 239.034C162.706 235.763 157.416 230.876 153.664 224.879C150.765 220.463 148.51 214.421 146.897 206.753C145.223 198.415 144.413 189.928 144.478 181.425ZM177.602 181.505C177.602 196.801 178.951 207.232 181.65 212.798C184.349 218.365 188.27 221.161 193.414 221.188C195.047 221.206 196.666 220.9 198.18 220.289C199.693 219.678 201.07 218.773 202.23 217.626C204.722 215.252 206.554 211.501 207.727 206.374C208.9 201.247 209.486 193.266 209.486 182.433C209.486 166.512 208.133 155.808 205.428 150.321C202.723 144.835 198.665 142.095 193.254 142.102C187.737 142.102 183.739 144.898 181.26 150.491C178.781 156.084 177.562 166.422 177.602 181.505Z" fill="#4DCBF2"/>
<path d="M313.835 219.462H253.015V192.059L313.835 119.896H342.94V193.615H358.073V219.462H342.94V241.887H313.835V219.462ZM313.835 193.615V155.868L281.7 193.615H313.835Z" fill="#4DCBF2"/>
<g opacity="0.3">
<path d="M143.18 77.7893C143.18 78.1586 143.07 78.5197 142.864 78.8267C142.658 79.1337 142.366 79.3728 142.023 79.5136C141.681 79.6545 141.305 79.6909 140.942 79.6181C140.579 79.5453 140.246 79.3667 139.985 79.1048C139.724 78.8429 139.547 78.5096 139.476 78.1471C139.405 77.7845 139.444 77.4092 139.587 77.0685C139.73 76.7278 139.971 76.4371 140.279 76.2334C140.588 76.0296 140.95 75.9219 141.32 75.9239C141.565 75.9239 141.808 75.9722 142.034 76.066C142.26 76.1599 142.466 76.2975 142.639 76.4708C142.811 76.6442 142.948 76.8499 143.041 77.0762C143.134 77.3024 143.181 77.5448 143.18 77.7893Z" fill="#4DCBF2"/>
<path d="M15.2026 149.444C15.9313 149.444 16.522 148.854 16.522 148.127C16.522 147.4 15.9313 146.81 15.2026 146.81C14.474 146.81 13.8833 147.4 13.8833 148.127C13.8833 148.854 14.474 149.444 15.2026 149.444Z" fill="#4DCBF2"/>
<path d="M233.185 341.742C234.228 341.742 235.074 340.898 235.074 339.857C235.074 338.816 234.228 337.972 233.185 337.972C232.142 337.972 231.296 338.816 231.296 339.857C231.296 340.898 232.142 341.742 233.185 341.742Z" fill="#4DCBF2"/>
<path d="M278.612 265.031C279.341 265.031 279.932 264.441 279.932 263.714C279.932 262.986 279.341 262.397 278.612 262.397C277.884 262.397 277.293 262.986 277.293 263.714C277.293 264.441 277.884 265.031 278.612 265.031Z" fill="#4DCBF2"/>
<path d="M366.239 27.9115C366.239 28.1719 366.161 28.4265 366.016 28.6431C365.871 28.8596 365.665 29.0284 365.424 29.128C365.183 29.2277 364.918 29.2538 364.662 29.203C364.406 29.1522 364.171 29.0268 363.987 28.8426C363.802 28.6584 363.676 28.4238 363.625 28.1684C363.575 27.913 363.601 27.6482 363.701 27.4076C363.8 27.167 363.969 26.9613 364.186 26.8166C364.403 26.672 364.659 26.5947 364.919 26.5947C365.269 26.5947 365.605 26.7335 365.852 26.9804C366.1 27.2273 366.239 27.5623 366.239 27.9115Z" fill="#4DCBF2"/>
<path d="M114.943 1.35681C114.943 1.61724 114.866 1.87183 114.721 2.08837C114.576 2.30491 114.37 2.47369 114.129 2.57335C113.888 2.67301 113.623 2.69909 113.367 2.64828C113.111 2.59748 112.876 2.47206 112.691 2.28791C112.507 2.10375 112.381 1.86913 112.33 1.6137C112.279 1.35828 112.305 1.09351 112.405 0.852904C112.505 0.612295 112.674 0.406642 112.891 0.261953C113.108 0.117264 113.363 0.0400391 113.624 0.0400391C113.973 0.0426491 114.307 0.182219 114.554 0.428598C114.801 0.674977 114.941 1.00839 114.943 1.35681Z" fill="#4DCBF2"/>
<path d="M219.832 70.4475C220.56 70.4475 221.151 69.858 221.151 69.1307C221.151 68.4035 220.56 67.814 219.832 67.814C219.103 67.814 218.512 68.4035 218.512 69.1307C218.512 69.858 219.103 70.4475 219.832 70.4475Z" fill="#4DCBF2"/>
</g>
<path d="M83.4387 70.4575C95.5333 70.4575 105.338 60.672 105.338 48.6011C105.338 36.5301 95.5333 26.7446 83.4387 26.7446C71.3441 26.7446 61.5396 36.5301 61.5396 48.6011C61.5396 60.672 71.3441 70.4575 83.4387 70.4575Z" fill="#4DCBF2"/>
<path opacity="0.7" d="M83.4387 70.4575C95.5333 70.4575 105.338 60.672 105.338 48.6011C105.338 36.5301 95.5333 26.7446 83.4387 26.7446C71.3441 26.7446 61.5396 36.5301 61.5396 48.6011C61.5396 60.672 71.3441 70.4575 83.4387 70.4575Z" fill="white"/>
<path opacity="0.2" d="M75.8928 32.1114C72.9104 32.1023 69.9578 32.7032 67.2171 33.8771C63.8487 37.5719 61.8495 42.3064 61.5519 47.2929C61.2544 52.2794 62.6765 57.2173 65.5817 61.285C68.4869 65.3527 72.7 68.305 77.52 69.6508C82.3401 70.9965 87.4765 70.6546 92.0748 68.6818C94.9257 65.5461 96.8031 61.6517 97.479 57.4716C98.1549 53.2915 97.6003 49.0054 95.8825 45.1339C94.1646 41.2623 91.3575 37.9718 87.8019 35.6618C84.2464 33.3519 80.0953 32.122 75.8528 32.1214L75.8928 32.1114Z" fill="#4DCBF2"/>
<path opacity="0.2" d="M73.7138 37.8872C73.7138 38.2818 73.5966 38.6675 73.3769 38.9956C73.1573 39.3237 72.8451 39.5794 72.4798 39.7304C72.1145 39.8814 71.7126 39.921 71.3248 39.844C70.9371 39.767 70.5809 39.577 70.3013 39.2979C70.0217 39.0189 69.8314 38.6634 69.7542 38.2764C69.6771 37.8894 69.7167 37.4883 69.868 37.1237C70.0193 36.7591 70.2755 36.4476 70.6042 36.2283C70.933 36.0091 71.3195 35.8921 71.7148 35.8921C72.245 35.8921 72.7535 36.1023 73.1283 36.4764C73.5032 36.8506 73.7138 37.3581 73.7138 37.8872Z" fill="#4DCBF2"/>
<path opacity="0.2" d="M97.2622 35.8921C97.2622 36.2867 97.1449 36.6724 96.9253 37.0005C96.7056 37.3286 96.3934 37.5843 96.0282 37.7353C95.6629 37.8863 95.2609 37.9258 94.8732 37.8489C94.4854 37.7719 94.1292 37.5819 93.8497 37.3028C93.5701 37.0238 93.3797 36.6683 93.3026 36.2813C93.2254 35.8943 93.265 35.4931 93.4163 35.1286C93.5676 34.764 93.8238 34.4524 94.1526 34.2332C94.4813 34.014 94.8678 33.897 95.2632 33.897C95.7933 33.897 96.3018 34.1072 96.6767 34.4813C97.0516 34.8555 97.2622 35.3629 97.2622 35.8921Z" fill="#4DCBF2"/>
<path opacity="0.2" d="M93.2638 50.1372C93.2638 50.7843 93.0715 51.4169 92.7113 51.955C92.351 52.4931 91.839 52.9125 91.24 53.1601C90.6409 53.4078 89.9818 53.4726 89.3458 53.3463C88.7099 53.2201 88.1257 52.9084 87.6673 52.4508C87.2088 51.9933 86.8965 51.4102 86.77 50.7755C86.6435 50.1408 86.7085 49.483 86.9566 48.8851C87.2047 48.2872 87.6249 47.7762 88.164 47.4167C88.7032 47.0571 89.337 46.8652 89.9854 46.8652C90.8549 46.8652 91.6888 47.21 92.3036 47.8236C92.9184 48.4372 93.2638 49.2694 93.2638 50.1372Z" fill="#4DCBF2"/>
<path opacity="0.2" d="M82.8489 59.4645C82.8489 60.3287 82.5922 61.1734 82.1111 61.8919C81.6301 62.6105 80.9464 63.1705 80.1464 63.5012C79.3465 63.8319 78.4662 63.9184 77.617 63.7498C76.7678 63.5812 75.9878 63.1651 75.3755 62.5541C74.7633 61.943 74.3463 61.1645 74.1774 60.3169C74.0085 59.4693 74.0952 58.5908 74.4265 57.7924C74.7579 56.9941 75.319 56.3117 76.0389 55.8316C76.7588 55.3515 77.6052 55.0952 78.4711 55.0952C79.6322 55.0952 80.7457 55.5555 81.5667 56.3749C82.3877 57.1943 82.8489 58.3057 82.8489 59.4645Z" fill="#4DCBF2"/>
<path d="M342.98 312.241C345.418 301.93 339.02 291.598 328.689 289.164C318.357 286.731 308.005 293.116 305.567 303.428C303.129 313.739 309.527 324.071 319.858 326.504C330.19 328.938 340.542 322.552 342.98 312.241Z" fill="#4DCBF2"/>
<path opacity="0.3" d="M342.98 312.241C345.418 301.93 339.02 291.598 328.689 289.164C318.357 286.731 308.005 293.116 305.567 303.428C303.129 313.739 309.527 324.071 319.858 326.504C330.19 328.938 340.542 322.552 342.98 312.241Z" fill="white"/>
<path opacity="0.4" d="M336.414 292.982C332.153 291.698 327.578 291.931 323.47 293.641C319.362 295.35 315.976 298.43 313.891 302.354C311.806 306.279 311.151 310.804 312.037 315.157C312.924 319.51 315.298 323.42 318.752 326.22C320.544 326.764 322.407 327.039 324.28 327.038C328.248 327.038 332.118 325.811 335.36 323.527C338.602 321.243 341.056 318.014 342.385 314.283C343.714 310.551 343.854 306.501 342.785 302.687C341.716 298.873 339.49 295.483 336.414 292.982Z" fill="#4DCBF2"/>
<path d="M305.929 313.591C285.409 323.228 300.712 330.66 329.627 320.285C356.404 310.679 366.609 298.568 342.621 302.329C343.91 307.367 310.377 320.405 305.929 313.591Z" fill="#4DCBF2"/>
<path opacity="0.2" d="M336.184 119.896C309.307 138.022 274.514 161.963 264.909 219.462H262.86C272.205 162.601 305.729 138.091 332.615 119.896H336.184Z" fill="black"/>
<path d="M197.152 299.895C180.161 299.895 163.359 292.243 155.173 279.754C150.126 272.033 144.258 255.863 161.73 234.285L163.279 235.542C150.925 250.805 148.646 266.117 156.852 278.667C166.847 293.929 190.426 301.61 210.556 296.144C231.175 290.548 243.689 272.651 244.899 247.044C249.027 159.449 295.654 132.465 329.697 112.763C350.856 100.523 366.139 91.685 362.78 73.0207C362.311 70.437 361.281 68.6514 359.612 67.5541C355.264 64.6911 346.768 66.6763 336.933 68.9607C317.633 73.4497 291.206 79.5946 275.464 52.8701L277.193 51.8726C292.185 77.3401 316.743 71.6241 336.483 67.0354C346.768 64.6512 355.644 62.5863 360.711 65.9082C362.86 67.3147 364.18 69.5392 364.709 72.6915C368.318 92.7224 351.716 102.339 330.676 114.509C297.023 133.981 250.946 160.646 246.868 247.184C245.608 273.719 232.555 292.283 211.045 298.119C206.514 299.323 201.842 299.92 197.152 299.895Z" fill="#4DCBF2"/>
<path opacity="0.2" d="M197.152 299.895C180.161 299.895 163.359 292.243 155.173 279.754C150.126 272.033 144.258 255.863 161.73 234.285L163.279 235.542C150.925 250.805 148.646 266.117 156.852 278.667C166.847 293.929 190.426 301.61 210.556 296.144C231.175 290.548 243.689 272.651 244.899 247.044C249.027 159.449 295.654 132.465 329.697 112.763C350.856 100.523 366.139 91.685 362.78 73.0207C362.311 70.437 361.281 68.6514 359.612 67.5541C355.264 64.6911 346.768 66.6763 336.933 68.9607C317.633 73.4497 291.206 79.5946 275.464 52.8701L277.193 51.8726C292.185 77.3401 316.743 71.6241 336.483 67.0354C346.768 64.6512 355.644 62.5863 360.711 65.9082C362.86 67.3147 364.18 69.5392 364.709 72.6915C368.318 92.7224 351.716 102.339 330.676 114.509C297.023 133.981 250.946 160.646 246.868 247.184C245.608 273.719 232.555 292.283 211.045 298.119C206.514 299.323 201.842 299.92 197.152 299.895Z" fill="white"/>
<path d="M254.884 29.2881C259.489 29.3146 264.065 30.0308 268.457 31.4129C268.457 31.4129 279.452 50.137 280.751 54.4265C280.291 58.6561 273.145 65.5891 273.145 65.5891L254.884 29.2881Z" fill="#4DCBF2"/>
<path opacity="0.3" d="M254.884 29.2881C259.489 29.3146 264.065 30.0308 268.457 31.4129C268.457 31.4129 279.452 50.137 280.751 54.4265C280.291 58.6561 273.145 65.5891 273.145 65.5891L254.884 29.2881Z" fill="white"/>
<path d="M287.448 120.195C283.214 115.028 279.353 109.568 275.893 103.855C275.054 102.412 274.258 100.943 273.505 99.4462C273.075 98.5983 272.665 97.7503 272.265 96.8924C271.741 96.0576 271.334 95.1547 271.056 94.209C269.856 81.57 274.194 72.2628 270.056 62.1177L253.584 68.5419C253.584 68.5419 254.984 86.6176 258.182 97.471C260.181 104.185 264.659 109.99 268.987 115.367C270.336 117.043 271.636 118.769 272.985 120.455C274.334 122.141 275.694 123.507 276.983 125.093C278.932 127.497 279.572 129.802 278.102 132.635L277.852 133.084C277.433 133.822 279.392 134.66 280.631 133.084C282.63 130.51 282.35 130.67 284.089 128.475C285.149 127.148 286.358 125.702 287.408 124.485C287.914 123.886 288.195 123.13 288.202 122.347C288.21 121.564 287.943 120.803 287.448 120.195Z" fill="#4DCBF2"/>
<path opacity="0.7" d="M287.448 120.195C283.214 115.028 279.353 109.568 275.893 103.855C275.054 102.412 274.258 100.943 273.505 99.4462C273.075 98.5983 272.665 97.7503 272.265 96.8924C271.741 96.0576 271.334 95.1547 271.056 94.209C269.856 81.57 274.194 72.2628 270.056 62.1177L253.584 68.5419C253.584 68.5419 254.984 86.6176 258.182 97.471C260.181 104.185 264.659 109.99 268.987 115.367C270.336 117.043 271.636 118.769 272.985 120.455C274.334 122.141 275.694 123.507 276.983 125.093C278.932 127.497 279.572 129.802 278.102 132.635L277.852 133.084C277.433 133.822 279.392 134.66 280.631 133.084C282.63 130.51 282.35 130.67 284.089 128.475C285.149 127.148 286.358 125.702 287.408 124.485C287.914 123.886 288.195 123.13 288.202 122.347C288.21 121.564 287.943 120.803 287.448 120.195Z" fill="white"/>
<path opacity="0.3" d="M283.419 114.998C280.806 117.794 277.904 120.309 274.764 122.5C275.193 122.978 275.613 123.497 276.043 123.956C279.188 121.836 282.043 119.318 284.539 116.464L283.419 114.998Z" fill="#4DCBF2"/>
<path opacity="0.3" d="M287.448 120.195L287.328 120.056C286.559 120.936 286.111 122.051 286.058 123.218C285.994 124.018 286.124 124.823 286.438 125.562L287.388 124.435C287.884 123.843 288.161 123.098 288.172 122.326C288.183 121.554 287.927 120.801 287.448 120.195Z" fill="#4DCBF2"/>
<path d="M250.965 41.2588C249.18 43.9274 247.038 46.3404 244.599 48.4313C243.246 49.5948 241.764 50.5989 240.181 51.4239C239.349 51.8492 238.487 52.2126 237.602 52.5112L236.922 52.7307L236.703 52.7906L236.233 52.9202C235.944 52.9888 235.65 53.0354 235.353 53.0599C234.51 53.1243 233.662 53.0467 232.844 52.8305C231.814 52.5384 230.826 52.1125 229.906 51.5636C229.166 51.1318 228.449 50.6623 227.757 50.157C226.507 49.2293 225.313 48.2301 224.179 47.1644C221.992 45.0969 219.986 42.8476 218.182 40.4408C217.834 39.972 217.662 39.3968 217.694 38.8144C217.726 38.2321 217.961 37.6793 218.357 37.2512C218.754 36.8232 219.288 36.5469 219.868 36.4699C220.447 36.393 221.035 36.5202 221.53 36.8297H221.61C223.969 38.326 226.348 39.9022 228.667 41.3087C229.846 41.997 230.985 42.6953 232.115 43.234C232.63 43.5034 233.161 43.7432 233.704 43.9522C234.042 44.1013 234.404 44.1891 234.774 44.2116C234.834 44.2116 234.774 44.1418 234.404 44.1517C234.287 44.1448 234.17 44.1448 234.054 44.1517L233.834 44.2016L234.164 44.032C234.608 43.7935 235.038 43.5304 235.453 43.244C236.347 42.6146 237.184 41.9069 237.952 41.1292C239.698 39.3028 241.334 37.3741 242.85 35.3533C243.68 34.4259 244.828 33.8416 246.068 33.7153C247.308 33.5889 248.55 33.9295 249.552 34.6702C250.553 35.411 251.241 36.4984 251.48 37.7192C251.719 38.94 251.493 40.206 250.846 41.2688L250.965 41.2588Z" fill="#4DCBF2"/>
<path opacity="0.7" d="M250.965 41.2588C249.18 43.9274 247.038 46.3404 244.599 48.4313C243.246 49.5948 241.764 50.5989 240.181 51.4239C239.349 51.8492 238.487 52.2126 237.602 52.5112L236.922 52.7307L236.703 52.7906L236.233 52.9202C235.944 52.9888 235.65 53.0354 235.353 53.0599C234.51 53.1243 233.662 53.0467 232.844 52.8305C231.814 52.5384 230.826 52.1125 229.906 51.5636C229.166 51.1318 228.449 50.6623 227.757 50.157C226.507 49.2293 225.313 48.2301 224.179 47.1644C221.992 45.0969 219.986 42.8476 218.182 40.4408C217.834 39.972 217.662 39.3968 217.694 38.8144C217.726 38.2321 217.961 37.6793 218.357 37.2512C218.754 36.8232 219.288 36.5469 219.868 36.4699C220.447 36.393 221.035 36.5202 221.53 36.8297H221.61C223.969 38.326 226.348 39.9022 228.667 41.3087C229.846 41.997 230.985 42.6953 232.115 43.234C232.63 43.5034 233.161 43.7432 233.704 43.9522C234.042 44.1013 234.404 44.1891 234.774 44.2116C234.834 44.2116 234.774 44.1418 234.404 44.1517C234.287 44.1448 234.17 44.1448 234.054 44.1517L233.834 44.2016L234.164 44.032C234.608 43.7935 235.038 43.5304 235.453 43.244C236.347 42.6146 237.184 41.9069 237.952 41.1292C239.698 39.3028 241.334 37.3741 242.85 35.3533C243.68 34.4259 244.828 33.8416 246.068 33.7153C247.308 33.5889 248.55 33.9295 249.552 34.6702C250.553 35.411 251.241 36.4984 251.48 37.7192C251.719 38.94 251.493 40.206 250.846 41.2688L250.965 41.2588Z" fill="white"/>
<path d="M214.434 34.6949L215.603 36.69C215.603 36.69 216.493 39.3036 218.282 39.7825L223.14 38.2163L222.89 37.8073C222.27 36.8696 222.34 35.0441 222.55 33.5278C222.76 32.0115 221.98 31.9616 221.4 32.3407C220.99 32.8123 220.701 33.3776 220.561 33.9867C220.322 33.6573 220.058 33.3471 219.771 33.059L218.292 31.5826C217.982 31.2798 217.568 31.1054 217.134 31.0943C216.701 31.0832 216.279 31.2362 215.953 31.5227L214.754 32.5901C214.469 32.8528 214.283 33.2042 214.224 33.5866C214.166 33.9691 214.24 34.3599 214.434 34.6949Z" fill="#4DCBF2"/>
<path opacity="0.7" d="M214.434 34.6949L215.603 36.69C215.603 36.69 216.493 39.3036 218.282 39.7825L223.14 38.2163L222.89 37.8073C222.27 36.8696 222.34 35.0441 222.55 33.5278C222.76 32.0115 221.98 31.9616 221.4 32.3407C220.99 32.8123 220.701 33.3776 220.561 33.9867C220.322 33.6573 220.058 33.3471 219.771 33.059L218.292 31.5826C217.982 31.2798 217.568 31.1054 217.134 31.0943C216.701 31.0832 216.279 31.2362 215.953 31.5227L214.754 32.5901C214.469 32.8528 214.283 33.2042 214.224 33.5866C214.166 33.9691 214.24 34.3599 214.434 34.6949Z" fill="white"/>
<path d="M259.791 27.5122C254.403 28.9375 249.242 31.1101 244.459 33.9663C243.712 34.4325 243.127 35.1151 242.78 35.9228C242.434 36.7305 242.343 37.6246 242.52 38.4853C244.449 47.9022 248.837 60.5113 253.574 68.5416L275.673 59.414C275.823 55.5235 270.456 42.9344 264.989 30.7642C264.009 28.5796 262.12 26.9535 259.791 27.5122Z" fill="#4DCBF2"/>
<path opacity="0.8" d="M259.791 27.5122C254.403 28.9375 249.242 31.1101 244.459 33.9663C243.712 34.4325 243.127 35.1151 242.78 35.9228C242.434 36.7305 242.343 37.6246 242.52 38.4853C244.449 47.9022 248.837 60.5113 253.574 68.5416L275.673 59.414C275.823 55.5235 270.456 42.9344 264.989 30.7642C264.009 28.5796 262.12 26.9535 259.791 27.5122Z" fill="white"/>
<path opacity="0.3" d="M268.417 38.4757L264.029 37.0093C265.029 39.573 268.557 42.815 271.026 44.7204C270.226 42.7253 269.337 40.6304 268.417 38.4757Z" fill="#4DCBF2"/>
<path d="M258.342 17.6365C256.513 14.165 252.565 12.4193 247.827 12.8084C243.829 13.1475 240.291 17.2176 240.711 19.4122C241.13 21.6068 244.489 22.5445 245.129 23.3026L242.36 25.2978C242.032 25.534 241.755 25.8341 241.546 26.1799C241.338 26.5256 241.201 26.91 241.145 27.3098C241.089 27.7096 241.115 28.1166 241.22 28.5063C241.326 28.8959 241.51 29.2603 241.76 29.5773C242.93 31.0536 244.469 32.5699 245.358 33.6872C253.015 33.4877 258.682 30.5748 260.731 27.7717C259.961 24.2204 260.121 21.0881 258.342 17.6365Z" fill="#4DCBF2"/>
<path opacity="0.8" d="M258.342 17.6365C256.513 14.165 252.565 12.4193 247.827 12.8084C243.829 13.1475 240.291 17.2176 240.711 19.4122C241.13 21.6068 244.489 22.5445 245.129 23.3026L242.36 25.2978C242.032 25.534 241.755 25.8341 241.546 26.1799C241.338 26.5256 241.201 26.91 241.145 27.3098C241.089 27.7096 241.115 28.1166 241.22 28.5063C241.326 28.8959 241.51 29.2603 241.76 29.5773C242.93 31.0536 244.469 32.5699 245.358 33.6872C253.015 33.4877 258.682 30.5748 260.731 27.7717C259.961 24.2204 260.121 21.0881 258.342 17.6365Z" fill="white"/>
<path d="M254.584 19.7911C255.127 21.1823 255.245 22.7031 254.923 24.1612C254.601 25.6194 253.853 26.9494 252.773 27.9833C251.693 29.0171 250.331 29.7083 248.858 29.9695C247.385 30.2306 245.867 30.0501 244.497 29.4506C243.127 28.8512 241.965 27.8597 241.159 26.6016C240.354 25.3435 239.94 23.8751 239.97 22.3822C240 20.8893 240.473 19.4388 241.329 18.2141C242.185 16.9894 243.385 16.0455 244.779 15.5016C246.649 14.7744 248.732 14.8177 250.57 15.6219C252.409 16.4262 253.852 17.9256 254.584 19.7911Z" fill="#263238"/>
<path d="M319.482 109.691C319.372 106.409 319.222 106.698 319.132 103.935C319.072 102.239 319.062 100.354 319.052 98.7277C319.048 97.9555 318.778 97.2082 318.286 96.612C317.795 96.0158 317.112 95.6074 316.353 95.4557C315.034 95.1864 313.704 94.937 312.355 94.6577C310.626 94.2886 308.917 93.8896 307.228 93.4008C305.908 93.0217 304.609 92.6027 303.32 92.1339C302.03 91.665 300.581 91.1363 299.242 90.5178C297.662 89.8495 296.103 89.1312 294.564 88.3831C292.835 87.5651 291.126 86.7072 289.416 85.8393C282.84 74.9759 282.7 67.8135 275.643 59.4141L260.491 66.2573C260.491 66.2573 271.625 85.969 279.201 94.3285C283.569 99.1367 290.416 101.311 296.523 102.888C300.931 104.015 305.398 104.883 309.866 105.711C311.605 106.03 313.494 106.15 314.994 107.187C316.103 108.036 316.864 109.26 317.133 110.629C317.199 110.908 317.259 111.187 317.313 111.466C317.503 112.304 319.552 111.666 319.482 109.691Z" fill="#4DCBF2"/>
<path opacity="0.8" d="M319.482 109.691C319.372 106.409 319.222 106.698 319.132 103.935C319.072 102.239 319.062 100.354 319.052 98.7277C319.048 97.9555 318.778 97.2082 318.286 96.612C317.795 96.0158 317.112 95.6074 316.353 95.4557C315.034 95.1864 313.704 94.937 312.355 94.6577C310.626 94.2886 308.917 93.8896 307.228 93.4008C305.908 93.0217 304.609 92.6027 303.32 92.1339C302.03 91.665 300.581 91.1363 299.242 90.5178C297.662 89.8495 296.103 89.1312 294.564 88.3831C292.835 87.5651 291.126 86.7072 289.416 85.8393C282.84 74.9759 282.7 67.8135 275.643 59.4141L260.491 66.2573C260.491 66.2573 271.625 85.969 279.201 94.3285C283.569 99.1367 290.416 101.311 296.523 102.888C300.931 104.015 305.398 104.883 309.866 105.711C311.605 106.03 313.494 106.15 314.994 107.187C316.103 108.036 316.864 109.26 317.133 110.629C317.199 110.908 317.259 111.187 317.313 111.466C317.503 112.304 319.552 111.666 319.482 109.691Z" fill="white"/>
<path opacity="0.3" d="M311.796 94.5281C311.196 94.3984 310.596 94.2688 309.987 94.1191C310.037 97.5707 308.417 103.516 307.828 105.322L309.727 105.681C310.971 102.087 311.669 98.328 311.796 94.5281Z" fill="#4DCBF2"/>
<path opacity="0.3" d="M319.092 98.7276C319.089 97.9569 318.82 97.2106 318.33 96.6146C317.841 96.0187 317.16 95.6093 316.403 95.4557L315.404 95.2661C315.564 96.4001 316.146 97.4326 317.033 98.159C317.604 98.6855 318.287 99.0745 319.032 99.2962C319.092 99.1167 319.092 98.9172 319.092 98.7276Z" fill="#4DCBF2"/>
<path d="M253.175 19.8513C253.574 21.3676 251.875 22.9537 250.526 21.6469C249.267 20.2992 247.888 19.0673 246.408 17.9659C245.019 17.098 246.868 15.5818 249.057 16.1703C249.991 16.4045 250.854 16.862 251.571 17.5033C252.289 18.1446 252.839 18.9504 253.175 19.8513Z" fill="white"/>
<path d="M253.284 68.0528C252.585 68.3121 253.864 69.5092 253.864 69.5092C253.864 69.5092 267.857 64.7309 276.353 59.813C276.374 59.5152 276.323 59.2169 276.204 58.9428C276.086 58.6686 275.904 58.4266 275.673 58.2368C268.402 61.9283 260.927 65.2056 253.284 68.0528Z" fill="#4DCBF2"/>
<path opacity="0.5" d="M253.284 68.0528C252.585 68.3121 253.864 69.5092 253.864 69.5092C253.864 69.5092 267.857 64.7309 276.353 59.813C276.374 59.5152 276.323 59.2169 276.204 58.9428C276.086 58.6686 275.904 58.4266 275.673 58.2368C268.402 61.9283 260.927 65.2056 253.284 68.0528Z" fill="white"/>
<path d="M263.579 26.8541C266.338 28.2507 268.927 29.7171 271.575 31.3431C272.865 32.1611 274.144 32.9891 275.413 33.8869C276.683 34.7847 277.942 35.7024 279.212 36.7399L279.681 37.129L280.271 37.6676C280.623 37.9814 280.956 38.3145 281.271 38.6652C281.59 39.0143 281.86 39.3535 282.12 39.6627C282.38 39.972 282.66 40.3411 282.89 40.6603C283.821 41.9427 284.682 43.2748 285.469 44.6505C287.018 47.3183 288.354 50.1034 289.467 52.9801C289.672 53.5236 289.683 54.1214 289.497 54.6719C289.311 55.2223 288.939 55.6914 288.446 55.9994C287.952 56.3075 287.367 56.4354 286.789 56.3614C286.212 56.2874 285.678 56.0161 285.279 55.5937L285.229 55.5338C283.23 53.409 281.301 51.1745 279.362 49.0896C277.423 47.0047 275.453 44.8899 273.824 43.9622C271.555 42.5556 269.027 41.1491 266.518 39.7725L258.962 35.5827C257.79 34.9637 256.913 33.9054 256.523 32.6407C256.133 31.3761 256.262 30.0087 256.883 28.8393C257.503 27.6699 258.563 26.7943 259.83 26.4052C261.098 26.0161 262.468 26.1453 263.639 26.7644L263.579 26.8541Z" fill="#4DCBF2"/>
<path opacity="0.8" d="M263.579 26.8541C266.338 28.2507 268.927 29.7171 271.575 31.3431C272.865 32.1611 274.144 32.9891 275.413 33.8869C276.683 34.7847 277.942 35.7024 279.212 36.7399L279.681 37.129L280.271 37.6676C280.623 37.9814 280.956 38.3145 281.271 38.6652C281.59 39.0143 281.86 39.3535 282.12 39.6627C282.38 39.972 282.66 40.3411 282.89 40.6603C283.821 41.9427 284.682 43.2748 285.469 44.6505C287.018 47.3183 288.354 50.1034 289.467 52.9801C289.672 53.5236 289.683 54.1214 289.497 54.6719C289.311 55.2223 288.939 55.6914 288.446 55.9994C287.952 56.3075 287.367 56.4354 286.789 56.3614C286.212 56.2874 285.678 56.0161 285.279 55.5937L285.229 55.5338C283.23 53.409 281.301 51.1745 279.362 49.0896C277.423 47.0047 275.453 44.8899 273.824 43.9622C271.555 42.5556 269.027 41.1491 266.518 39.7725L258.962 35.5827C257.79 34.9637 256.913 33.9054 256.523 32.6407C256.133 31.3761 256.262 30.0087 256.883 28.8393C257.503 27.6699 258.563 26.7943 259.83 26.4052C261.098 26.0161 262.468 26.1453 263.639 26.7644L263.579 26.8541Z" fill="white"/>
<path d="M291.836 57.9576L290.986 55.8328C290.986 55.8328 290.516 53.1195 288.827 52.3613L283.83 53.1494L283.999 53.5883C284.459 54.5859 284.109 56.4114 283.66 57.8678C283.21 59.3243 283.969 59.5138 284.609 59.2245C284.969 59.0649 285.319 58.4165 285.699 57.7282C285.885 58.0749 286.095 58.4083 286.328 58.7257L287.558 60.4116C287.815 60.7609 288.194 61.0004 288.621 61.0818C289.047 61.1632 289.489 61.0806 289.857 60.8505L291.216 59.9826C291.534 59.7653 291.769 59.4465 291.881 59.0785C291.994 58.7105 291.978 58.3152 291.836 57.9576Z" fill="#4DCBF2"/>
<path opacity="0.8" d="M291.836 57.9576L290.986 55.8328C290.986 55.8328 290.516 53.1195 288.827 52.3613L283.83 53.1494L283.999 53.5883C284.459 54.5859 284.109 56.4114 283.66 57.8678C283.21 59.3243 283.969 59.5138 284.609 59.2245C284.969 59.0649 285.319 58.4165 285.699 57.7282C285.885 58.0749 286.095 58.4083 286.328 58.7257L287.558 60.4116C287.815 60.7609 288.194 61.0004 288.621 61.0818C289.047 61.1632 289.489 61.0806 289.857 60.8505L291.216 59.9826C291.534 59.7653 291.769 59.4465 291.881 59.0785C291.994 58.7105 291.978 58.3152 291.836 57.9576Z" fill="white"/>
<path opacity="0.3" d="M259.361 38.3257L258.142 38.4254L250.656 56.4612C251.065 56.4906 251.476 56.457 251.875 56.3615C251.875 56.3615 261.63 52.7304 264.579 51.3737C262.6 47.2937 259.361 38.3257 259.361 38.3257Z" fill="#4DCBF2"/>
<path d="M245.698 43.0544C246.608 47.7691 248.297 52.2999 250.696 56.4616C254.354 55.2046 260.451 52.8305 263.409 51.4738C261.421 47.2191 259.656 42.8639 258.122 38.4258C254.994 38.6353 248.127 41.2588 245.698 43.0544Z" fill="white"/>
<path opacity="0.3" d="M253.125 46.9549C252.978 47.4427 252.691 47.8763 252.298 48.2009C251.905 48.5254 251.424 48.7263 250.916 48.7781C250.409 48.8299 249.897 48.7303 249.447 48.4919C248.996 48.2535 248.626 47.887 248.384 47.4388C248.142 46.9906 248.038 46.4808 248.087 45.9739C248.135 45.467 248.333 44.9859 248.655 44.5913C248.978 44.1967 249.41 43.9064 249.898 43.7571C250.386 43.6079 250.907 43.6063 251.395 43.7528C252.05 43.9489 252.6 44.3963 252.924 44.9967C253.248 45.5971 253.32 46.3014 253.125 46.9549Z" fill="#4DCBF2"/>
<path opacity="0.6" d="M255.035 43.5231C254.996 43.6896 254.907 43.8405 254.781 43.9559C254.654 44.0714 254.496 44.1459 254.326 44.1699C254.156 44.1939 253.983 44.1661 253.83 44.0902C253.676 44.0143 253.549 43.8938 253.465 43.7446C253.382 43.5954 253.345 43.4245 253.36 43.2542C253.376 43.0839 253.442 42.9222 253.552 42.7904C253.661 42.6585 253.807 42.5627 253.972 42.5154C254.137 42.4682 254.312 42.4717 254.475 42.5256C254.677 42.5902 254.848 42.7291 254.952 42.9143C255.056 43.0994 255.085 43.317 255.035 43.5231Z" fill="#4DCBF2"/>
<path opacity="0.6" d="M257.273 42.655C257.25 42.7707 257.203 42.8802 257.134 42.9766C257.066 43.073 256.978 43.1541 256.876 43.2146C256.775 43.2752 256.662 43.3139 256.544 43.3284C256.427 43.3428 256.308 43.3326 256.194 43.2984C256.081 43.2642 255.976 43.2068 255.886 43.1299C255.797 43.0529 255.724 42.9581 255.673 42.8515C255.622 42.7449 255.594 42.6289 255.591 42.5109C255.587 42.3929 255.609 42.2755 255.653 42.1662C255.685 42.0606 255.738 41.9624 255.808 41.8771C255.878 41.7919 255.965 41.7213 256.062 41.6694C256.16 41.6175 256.267 41.5853 256.377 41.5747C256.487 41.5641 256.598 41.5752 256.703 41.6075C256.917 41.6722 257.097 41.8184 257.204 42.0145C257.311 42.2106 257.336 42.4407 257.273 42.655Z" fill="#4DCBF2"/>
<path opacity="0.5" d="M260.411 50.4264L251.166 54.0675L250.606 52.2519L259.851 48.6108L260.411 50.4264Z" fill="#4DCBF2"/>
<path opacity="0.2" d="M209.407 189.067C209.385 194.875 208.823 200.669 207.727 206.374C206.548 211.502 204.716 215.252 202.23 217.627C201.073 218.774 199.698 219.679 198.186 220.291C196.674 220.902 195.056 221.207 193.425 221.188C188.287 221.188 184.366 218.391 181.66 212.799C181.185 211.794 180.781 210.757 180.451 209.696C174.738 214.594 169.417 219.93 164.539 225.657L159.231 231.902C162.088 234.791 165.383 237.212 168.997 239.074C175.22 242.286 183.39 243.896 193.504 243.902C195.284 243.902 197.003 243.852 198.672 243.753C204.791 234.715 209.855 225.009 213.764 214.824L228.607 176.198L209.407 189.067Z" fill="#414453"/>
<path d="M75.6025 241.768L93.0939 259.225L142.07 213.168C125.188 206.733 92.3642 224.999 75.6025 241.768Z" fill="#0F3A5A"/>
<path d="M136.603 302.619C131.015 297.032 119.111 285.161 119.111 285.161L165.258 236.281C171.665 253.09 153.364 285.88 136.603 302.619Z" fill="#0F3A5A"/>
<path d="M203.549 192.588L222.63 155.868L185.838 174.931C174.021 181.048 163.109 188.77 153.414 197.875L90.6953 256.801L121.51 287.555L180.551 224.959C189.678 215.281 197.418 204.387 203.549 192.588Z" fill="#4DCBF2"/>
<path opacity="0.6" d="M203.549 192.588L222.63 155.868L185.838 174.931C174.021 181.048 163.109 188.77 153.414 197.875L90.6953 256.801L121.51 287.555L180.551 224.959C189.678 215.281 197.418 204.387 203.549 192.588Z" fill="white"/>
<path d="M164.369 226.884C171.49 226.884 177.262 221.122 177.262 214.015C177.262 206.908 171.49 201.147 164.369 201.147C157.248 201.147 151.475 206.908 151.475 214.015C151.475 221.122 157.248 226.884 164.369 226.884Z" fill="white"/>
<path d="M164.369 222.286C168.945 222.286 172.655 218.583 172.655 214.016C172.655 209.449 168.945 205.746 164.369 205.746C159.793 205.746 156.083 209.449 156.083 214.016C156.083 218.583 159.793 222.286 164.369 222.286Z" fill="#4DCBF2"/>
<path opacity="0.3" d="M131.925 276.502L101.76 246.396L126.458 223.183L155.183 251.853L131.925 276.502Z" fill="#4DCBF2"/>
<path d="M82.4292 269.32C59.8404 271.145 52.3541 285.58 49.7954 304.763C48.496 314.549 47.9163 324.455 39.6904 330.181C39.1955 330.516 38.8229 331.003 38.6284 331.568C38.4339 332.132 38.4279 332.745 38.6114 333.313C38.7948 333.882 39.1579 334.375 39.6461 334.721C40.1343 335.066 40.7214 335.244 41.3196 335.228C71.6446 334.281 85.7876 319.467 87.5667 313.282C87.0997 316.515 86.2647 319.685 85.0779 322.729C84.8598 323.266 84.8171 323.858 84.9559 324.421C85.0947 324.984 85.4079 325.489 85.851 325.864C86.294 326.238 86.8443 326.464 87.4234 326.508C88.0024 326.553 88.5808 326.413 89.0759 326.111C97.5817 320.794 108.256 310.998 108.966 295.107C102.709 286.258 82.4292 269.32 82.4292 269.32Z" fill="#4DCBF2"/>
<path opacity="0.2" d="M82.4292 269.32C59.8404 271.145 52.3541 285.58 49.7954 304.763C48.496 314.549 47.9163 324.455 39.6904 330.181C39.1955 330.516 38.8229 331.003 38.6284 331.568C38.4339 332.132 38.4279 332.745 38.6114 333.313C38.7948 333.882 39.1579 334.375 39.6461 334.721C40.1343 335.066 40.7214 335.244 41.3196 335.228C71.6446 334.281 85.7876 319.467 87.5667 313.282C87.0997 316.515 86.2647 319.685 85.0779 322.729C84.8598 323.266 84.8171 323.858 84.9559 324.421C85.0947 324.984 85.4079 325.489 85.851 325.864C86.294 326.238 86.8443 326.464 87.4234 326.508C88.0024 326.553 88.5808 326.413 89.0759 326.111C97.5817 320.794 108.256 310.998 108.966 295.107C102.709 286.258 82.4292 269.32 82.4292 269.32Z" fill="white"/>
<path d="M112.465 301.92L76.2925 265.809L95.5629 261.649L116.643 282.687L112.465 301.92Z" fill="#4DCBF2"/>
</g>
<defs>
<clipPath id="clip0_1064_4940">
<rect width="384" height="359" fill="white"/>
</clipPath>
</defs>
</svg>
